# xmcd
#
# Track frame offsets:
#	150
#	22578
#	34267
#	46920
#	60082
#	81720
#	95609
#	110305
#	127292
#	150912
#	163319
#	180668
#	196979
#	216158
#	234624
#	248988
#	266631
#	281621
#	303370
#	317590
#
# Disc length: 4578 seconds
#
# Revision: 1
# Processed by: cddbd v1.5.1PL0 Copyright (c) Steve Scherf et al.
# Submitted via: EasyCDDAExtractor 7.1.1.1
#
DISCID=1311e014
DTITLE=Little Johnny Taylor - Part Time Love
DYEAR=2000
DGENRE=Blues
TTITLE0=L.I.T
TTITLE1=I Asked Myself A Question
TTITLE2=I Need Some Livin'
TTITLE3=I Should Have Known
TTITLE4=But You Do
TTITLE5=A-Amen
TTITLE6=A New Song
TTITLE7=Just One More Chance To Be With You
TTITLE8=Don't Do It
TTITLE9=I'm So In Love
TTITLE10=Part Time Love
TTITLE11=You're Gonna Need Another Favour
TTITLE12=True Love
TTITLE13=Future
TTITLE14=I Can't See Myself As A One-Woman Man
TTITLE15=Just A Little Bit
TTITLE16=Hard Head Makes A Sore Behind
TTITLE17=Found A New Love
TTITLE18=Junkie For Your Love
TTITLE19=When Are You Coming Home
EXTD=
EXTT0=
EXTT1=
EXTT2=
EXTT3=
EXTT4=
EXTT5=
EXTT6=
EXTT7=
EXTT8=
EXTT9=
EXTT10=
EXTT11=
EXTT12=
EXTT13=
EXTT14=
EXTT15=
EXTT16=
EXTT17=
EXTT18=
EXTT19=
PLAYORDER=
